<mxfile host="app.diagrams.net" modified="2024-02-04T15:13:30.993Z" agent="Mozilla/5.0 (Windows NT 10.0; Win64; x64) AppleWebKit/537.36 (KHTML, like Gecko) Chrome/121.0.0.0 Safari/537.36" etag="aE7wVo2vC089HDTdrUci" version="22.1.18" type="device">
  <diagram id="C5RBs43oDa-KdzZeNtuy" name="Page-1">
    <mxGraphModel dx="934" dy="7094" grid="1" gridSize="10" guides="1" tooltips="1" connect="1" arrows="1" fold="1" page="1" pageScale="1" pageWidth="2339" pageHeight="3300" math="0" shadow="0">
      <root>
        <mxCell id="WIyWlLk6GJQsqaUBKTNV-0" />
        <mxCell id="WIyWlLk6GJQsqaUBKTNV-1" parent="WIyWlLk6GJQsqaUBKTNV-0" />
        <mxCell id="xJOXvgBcExufeUF1zppf-1" value="&lt;h1&gt;&lt;u&gt;Handling Embedd PDF Request&lt;/u&gt;&lt;/h1&gt;" style="text;html=1;strokeColor=none;fillColor=none;align=center;verticalAlign=middle;whiteSpace=wrap;rounded=0;" vertex="1" parent="WIyWlLk6GJQsqaUBKTNV-1">
          <mxGeometry x="220" y="-6580" width="500" height="30" as="geometry" />
        </mxCell>
        <mxCell id="xJOXvgBcExufeUF1zppf-11" style="edgeStyle=orthogonalEdgeStyle;rounded=0;orthogonalLoop=1;jettySize=auto;html=1;exitX=0.5;exitY=1;exitDx=0;exitDy=0;entryX=0.5;entryY=0;entryDx=0;entryDy=0;" edge="1" parent="WIyWlLk6GJQsqaUBKTNV-1" source="xJOXvgBcExufeUF1zppf-7" target="xJOXvgBcExufeUF1zppf-10">
          <mxGeometry relative="1" as="geometry" />
        </mxCell>
        <mxCell id="xJOXvgBcExufeUF1zppf-7" value="Get the media file content from Whatsapp Cloud API using the media ID" style="rounded=1;whiteSpace=wrap;html=1;" vertex="1" parent="WIyWlLk6GJQsqaUBKTNV-1">
          <mxGeometry x="400" y="-6460" width="120" height="70" as="geometry" />
        </mxCell>
        <mxCell id="xJOXvgBcExufeUF1zppf-8" value="PDF metadatas" style="text;html=1;strokeColor=none;fillColor=none;align=center;verticalAlign=middle;whiteSpace=wrap;rounded=0;" vertex="1" parent="WIyWlLk6GJQsqaUBKTNV-1">
          <mxGeometry x="430" y="-6530" width="60" height="30" as="geometry" />
        </mxCell>
        <mxCell id="xJOXvgBcExufeUF1zppf-13" style="edgeStyle=orthogonalEdgeStyle;rounded=0;orthogonalLoop=1;jettySize=auto;html=1;exitX=0.5;exitY=1;exitDx=0;exitDy=0;entryX=0.5;entryY=0;entryDx=0;entryDy=0;" edge="1" parent="WIyWlLk6GJQsqaUBKTNV-1" source="xJOXvgBcExufeUF1zppf-10" target="xJOXvgBcExufeUF1zppf-12">
          <mxGeometry relative="1" as="geometry" />
        </mxCell>
        <mxCell id="xJOXvgBcExufeUF1zppf-10" value="Save the PDF file in the temporary files directory" style="rounded=1;whiteSpace=wrap;html=1;" vertex="1" parent="WIyWlLk6GJQsqaUBKTNV-1">
          <mxGeometry x="400" y="-6370" width="120" height="60" as="geometry" />
        </mxCell>
        <mxCell id="xJOXvgBcExufeUF1zppf-16" style="edgeStyle=orthogonalEdgeStyle;rounded=0;orthogonalLoop=1;jettySize=auto;html=1;exitX=0.5;exitY=1;exitDx=0;exitDy=0;entryX=0.5;entryY=0;entryDx=0;entryDy=0;" edge="1" parent="WIyWlLk6GJQsqaUBKTNV-1" source="xJOXvgBcExufeUF1zppf-12" target="xJOXvgBcExufeUF1zppf-15">
          <mxGeometry relative="1" as="geometry" />
        </mxCell>
        <mxCell id="xJOXvgBcExufeUF1zppf-12" value="Process the PDF document by passing the &lt;b&gt;path &lt;/b&gt;to the saved PDF. The function will return a summary of the PDF." style="rounded=1;whiteSpace=wrap;html=1;fillColor=#f8cecc;strokeColor=#b85450;shadow=1;" vertex="1" parent="WIyWlLk6GJQsqaUBKTNV-1">
          <mxGeometry x="395" y="-6280" width="130" height="100" as="geometry" />
        </mxCell>
        <mxCell id="xJOXvgBcExufeUF1zppf-14" value="" style="endArrow=none;dashed=1;html=1;dashPattern=1 3;strokeWidth=2;rounded=0;exitX=0.5;exitY=0;exitDx=0;exitDy=0;" edge="1" parent="WIyWlLk6GJQsqaUBKTNV-1" source="xJOXvgBcExufeUF1zppf-7">
          <mxGeometry width="50" height="50" relative="1" as="geometry">
            <mxPoint x="410" y="-6450" as="sourcePoint" />
            <mxPoint x="460" y="-6500" as="targetPoint" />
          </mxGeometry>
        </mxCell>
        <mxCell id="xJOXvgBcExufeUF1zppf-18" style="edgeStyle=orthogonalEdgeStyle;rounded=0;orthogonalLoop=1;jettySize=auto;html=1;exitX=0.5;exitY=1;exitDx=0;exitDy=0;entryX=0.5;entryY=0;entryDx=0;entryDy=0;" edge="1" parent="WIyWlLk6GJQsqaUBKTNV-1" source="xJOXvgBcExufeUF1zppf-15" target="xJOXvgBcExufeUF1zppf-17">
          <mxGeometry relative="1" as="geometry" />
        </mxCell>
        <mxCell id="xJOXvgBcExufeUF1zppf-15" value="Save the summary as a SystemMessage in the chat history on DynamoDB" style="rounded=1;whiteSpace=wrap;html=1;" vertex="1" parent="WIyWlLk6GJQsqaUBKTNV-1">
          <mxGeometry x="400" y="-6150" width="120" height="60" as="geometry" />
        </mxCell>
        <mxCell id="xJOXvgBcExufeUF1zppf-20" style="edgeStyle=orthogonalEdgeStyle;rounded=0;orthogonalLoop=1;jettySize=auto;html=1;exitX=0.5;exitY=1;exitDx=0;exitDy=0;entryX=0.5;entryY=0;entryDx=0;entryDy=0;" edge="1" parent="WIyWlLk6GJQsqaUBKTNV-1" source="xJOXvgBcExufeUF1zppf-17">
          <mxGeometry relative="1" as="geometry">
            <mxPoint x="459.9999999999998" y="-5970" as="targetPoint" />
          </mxGeometry>
        </mxCell>
        <mxCell id="xJOXvgBcExufeUF1zppf-17" value="Send the summary to the user using Whatsapp Cloud API." style="rounded=1;whiteSpace=wrap;html=1;" vertex="1" parent="WIyWlLk6GJQsqaUBKTNV-1">
          <mxGeometry x="400" y="-6060" width="120" height="60" as="geometry" />
        </mxCell>
        <mxCell id="xJOXvgBcExufeUF1zppf-23" style="edgeStyle=orthogonalEdgeStyle;rounded=0;orthogonalLoop=1;jettySize=auto;html=1;exitX=0.5;exitY=1;exitDx=0;exitDy=0;entryX=0.5;entryY=0;entryDx=0;entryDy=0;" edge="1" parent="WIyWlLk6GJQsqaUBKTNV-1" source="xJOXvgBcExufeUF1zppf-21" target="xJOXvgBcExufeUF1zppf-22">
          <mxGeometry relative="1" as="geometry" />
        </mxCell>
        <mxCell id="xJOXvgBcExufeUF1zppf-21" value="Remove the PDF file from the temporary files directory." style="rounded=1;whiteSpace=wrap;html=1;" vertex="1" parent="WIyWlLk6GJQsqaUBKTNV-1">
          <mxGeometry x="400" y="-5970" width="120" height="60" as="geometry" />
        </mxCell>
        <mxCell id="xJOXvgBcExufeUF1zppf-22" value="" style="ellipse;whiteSpace=wrap;html=1;aspect=fixed;" vertex="1" parent="WIyWlLk6GJQsqaUBKTNV-1">
          <mxGeometry x="440" y="-5890" width="40" height="40" as="geometry" />
        </mxCell>
      </root>
    </mxGraphModel>
  </diagram>
</mxfile>
